<svg width="20" height="20" viewBox="0 0 20 20" fill="none" xmlns="http://www.w3.org/2000/svg">
<path d="M7 4.66667C7 3.19391 8.34315 2 10 2C11.6569 2 13 3.19391 13 4.66667V10C13 11.4728 11.6569 12.6667 10 12.6667C8.34315 12.6667 7 11.4728 7 10V4.66667Z" fill="black"/>
<path d="M5.5 9.68251C5.5 9.31432 5.16421 9.01584 4.75 9.01584C4.33579 9.01584 4 9.31432 4 9.68251V9.99997C4 12.7197 6.29027 14.964 9.25 15.292V16.6667H7.75C7.33579 16.6667 7 16.9651 7 17.3333C7 17.7015 7.33579 18 7.75 18H12.25C12.6642 18 13 17.7015 13 17.3333C13 16.9651 12.6642 16.6667 12.25 16.6667H10.75V15.292C13.7097 14.964 16 12.7197 16 9.99997V9.68251C16 9.31432 15.6642 9.01584 15.25 9.01584C14.8358 9.01584 14.5 9.31432 14.5 9.68251V9.99997C14.5 12.2091 12.4853 14 10 14C7.51472 14 5.5 12.2091 5.5 9.99997V9.68251Z" fill="black"/>
<rect x="4.62529" y="4.66476" width="1.19274" height="16.4752" rx="0.59637" transform="rotate(-39.2597 4.62529 4.66476)" fill="black" stroke="white" stroke-width="0.5"/>
</svg>
